<svg width="90" height="54" viewBox="0 0 90 54" fill="none" xmlns="http://www.w3.org/2000/svg">
<rect width="90" height="54" rx="8" fill="white"/>
<rect x="0.5" y="0.5" width="89" height="53" rx="7.5" stroke="#222222" stroke-opacity="0.12"/>
<path d="M16.7803 40.715C17.3113 40.418 17.5723 39.968 17.5723 39.356C17.5723 38.276 16.7983 37.592 15.5923 37.592H13.0183V44H15.7003C16.9063 44 17.6623 43.289 17.6623 42.164C17.6623 41.714 17.5453 41.354 17.2663 41.057C17.1313 40.922 17.0323 40.85 16.7803 40.715ZM14.2693 40.184V38.708H15.4933C16.0063 38.708 16.3213 38.987 16.3213 39.446C16.3213 39.905 16.0063 40.184 15.4933 40.184H14.2693ZM14.2693 42.884V41.309H15.5743C16.0873 41.309 16.4113 41.606 16.4113 42.092C16.4113 42.578 16.0873 42.884 15.5743 42.884H14.2693ZM24.3601 40.346C24.3601 39.311 24.1711 38.699 23.7211 38.24C23.2711 37.781 22.6771 37.538 21.9931 37.538C21.3001 37.538 20.7061 37.781 20.2561 38.24C19.7611 38.744 19.6261 39.257 19.6261 40.535V41.066C19.6261 41.759 19.6351 42.713 20.2561 43.352C20.7061 43.811 21.3001 44.054 21.9931 44.054C22.6861 44.054 23.2711 43.82 23.7211 43.352C24.3511 42.704 24.3601 41.867 24.3601 41.03V40.346ZM23.1091 40.679C23.1091 41.984 23.0551 42.299 22.7941 42.596C22.5961 42.821 22.3171 42.938 21.9931 42.938C21.6691 42.938 21.3991 42.812 21.1831 42.596C20.8861 42.299 20.8771 41.696 20.8771 41.03V40.706C20.8771 39.914 20.8951 39.311 21.1831 38.996C21.3811 38.771 21.6691 38.654 21.9931 38.654C22.3171 38.654 22.5961 38.771 22.7941 38.996C23.0461 39.275 23.1091 39.626 23.1091 40.679ZM33.0539 38.996C34.0889 39.041 34.4579 39.554 34.4579 40.607C34.4579 41.624 34.0709 42.173 33.0539 42.236V38.996ZM31.8389 42.236C30.8219 42.173 30.4349 41.624 30.4349 40.607C30.4349 39.554 30.8039 39.041 31.8389 38.996V42.236ZM33.0629 44.045V43.28C34.9439 43.181 35.6999 42.218 35.6999 40.553C35.6999 38.897 34.8359 38.033 33.0629 37.925V37.286H31.8209V37.925C30.0569 38.033 29.1839 38.897 29.1839 40.553C29.1839 42.218 29.9489 43.181 31.8209 43.28V44.045H33.0629ZM37.756 37.592V44H39.007V41.588H40.24C41.482 41.588 42.355 40.76 42.355 39.59C42.355 38.42 41.473 37.592 40.24 37.592H37.756ZM39.007 40.463V38.708H40.177C40.735 38.708 41.104 39.059 41.104 39.59C41.104 40.121 40.735 40.463 40.177 40.463H39.007ZM48.8091 44L46.4691 37.592H45.4881L43.1571 44H44.4621L44.8491 42.866H47.1261L47.5041 44H48.8091ZM46.7931 41.813H45.2001L46.0101 39.482L46.7931 41.813ZM55.1694 44V37.592H53.9184V40.211H51.7494V37.592H50.4984V44H51.7494V41.318H53.9184V44H55.1694ZM62.9775 45.422V42.884H62.2305V37.592H60.9795V42.884H58.8105V37.592H57.5595V44H61.7715V45.422H62.9775ZM69.7267 44V37.592H68.6107L66.1177 41.696V37.592H64.8667V44H65.9827L68.4757 39.887V44H69.7267ZM76.9812 44V37.592H75.8652L73.3722 41.696V37.592H72.1212V44H73.2372L75.7302 39.887V44H76.9812Z" fill="#222222"/>
<rect width="21.8878" height="6" transform="matrix(1 0 0 -1 12 30)" fill="#4A5B9D"/>
<rect width="22.2245" height="6" transform="matrix(1 0 0 -1 33.8877 30)" fill="#DEE5F2"/>
<rect width="21.8878" height="6" transform="matrix(1 0 0 -1 56.1123 30)" fill="#DD564A"/>
<path d="M26.4779 16.029H25.2089C25.0829 16.542 24.7589 16.938 24.1289 16.938C23.7869 16.938 23.5079 16.812 23.3279 16.605C23.0849 16.335 23.0129 16.029 23.0129 14.796C23.0129 13.563 23.0849 13.257 23.3279 12.987C23.5079 12.78 23.7869 12.654 24.1289 12.654C24.7589 12.654 25.0829 13.05 25.2089 13.563H26.4779C26.2529 12.222 25.3169 11.538 24.1199 11.538C23.4179 11.538 22.8419 11.79 22.3919 12.24C21.7439 12.888 21.7619 13.689 21.7619 14.796C21.7619 15.903 21.7439 16.704 22.3919 17.352C22.8419 17.802 23.4179 18.054 24.1199 18.054C25.3079 18.054 26.2529 17.37 26.4779 16.029ZM33.8049 19.422V16.884H33.0669V11.592H29.2059V13.23C29.2059 14.706 28.9719 16.065 28.4409 16.884H27.8379V19.422H29.0439V18H32.5989V19.422H33.8049ZM31.8159 16.884H29.8359C30.2769 15.993 30.4029 14.904 30.4029 13.635V12.708H31.8159V16.884ZM39.9256 18V16.884H36.9556V15.327H39.4846V14.211H36.9556V12.708H39.9256V11.592H35.7046V18H39.9256ZM46.7248 18V11.592H42.7378V14.499C42.7378 16.506 42.2788 16.884 41.6398 16.884H41.4598V18H41.9548C43.2868 18 43.9438 17.262 43.9438 14.571V12.708H45.4738V18H46.7248ZM54.0738 18L51.7338 11.592H50.7528L48.4218 18H49.7268L50.1138 16.866H52.3908L52.7688 18H54.0738ZM52.0578 15.813H50.4648L51.2748 13.482L52.0578 15.813ZM60.434 18V11.592H59.183V14.211H57.014V11.592H55.763V18H57.014V15.318H59.183V18H60.434ZM67.3421 14.346C67.3421 13.311 67.1531 12.699 66.7031 12.24C66.2531 11.781 65.6591 11.538 64.9751 11.538C64.2821 11.538 63.6881 11.781 63.2381 12.24C62.7431 12.744 62.6081 13.257 62.6081 14.535V15.066C62.6081 15.759 62.6171 16.713 63.2381 17.352C63.6881 17.811 64.2821 18.054 64.9751 18.054C65.6681 18.054 66.2531 17.82 66.7031 17.352C67.3331 16.704 67.3421 15.867 67.3421 15.03V14.346ZM66.0911 14.679C66.0911 15.984 66.0371 16.299 65.7761 16.596C65.5781 16.821 65.2991 16.938 64.9751 16.938C64.6511 16.938 64.3811 16.812 64.1651 16.596C63.8681 16.299 63.8591 15.696 63.8591 15.03V14.706C63.8591 13.914 63.8771 13.311 64.1651 12.996C64.3631 12.771 64.6511 12.654 64.9751 12.654C65.2991 12.654 65.5781 12.771 65.7761 12.996C66.0281 13.275 66.0911 13.626 66.0911 14.679Z" fill="#222222"/>
</svg>
