<svg width="64" height="56" viewBox="0 0 64 56" fill="none" xmlns="http://www.w3.org/2000/svg">
<g clip-path="url(#clip0)">
<g opacity="0.7">
<path opacity="0.2" d="M20.8253 34.1712C21.1688 33.7239 21.5038 33.2307 21.8963 32.8127C21.8963 32.679 21.9015 32.5484 21.913 32.422L6.56944 33.3144C5.35239 33.3855 3.80134 32.1449 3.10513 30.5451L2.14799 28.3423C1.45179 26.7425 1.87452 25.3871 3.08739 25.3118L26.5724 23.9461C26.5753 23.9188 26.5816 23.8921 26.5912 23.8666L26.6026 23.8352C26.5332 23.79 26.4808 23.723 26.4537 23.6446C26.4263 23.5664 26.4259 23.4813 26.4523 23.4027C26.6127 22.8245 26.8746 22.2795 27.2258 21.7933L2.19183 23.2553C0.104277 23.3765 -0.618017 25.6964 0.573977 28.4364L1.53112 30.6381C2.72206 33.3781 5.37745 35.5005 7.46083 35.3793L20.8421 34.6007C20.7897 34.5424 20.7593 34.4674 20.7563 34.389C20.7532 34.3106 20.7777 34.2335 20.8253 34.1712Z" fill="#E0161C"/>
<path opacity="0.2" d="M61.7664 27.1342L60.8092 24.9325C59.6173 22.1925 56.9629 20.0691 54.8786 20.1903L40.6738 21.0169C40.6593 21.0931 40.623 21.1635 40.5695 21.2196C40.1999 21.623 39.8063 22.0034 39.4212 22.3963C39.7019 22.8446 40.1519 23.1623 40.5267 23.1403L55.7761 22.2583C56.9931 22.1883 58.5443 23.4277 59.2405 25.0286L60.1977 27.2303C60.8939 28.8313 60.4712 30.1856 59.2531 30.2608L33.929 31.7343C33.9111 31.7986 33.8792 31.8582 33.836 31.9088C33.2505 32.6079 32.7494 33.4345 31.9905 33.9622L60.1506 32.3236C62.2341 32.1931 62.9574 29.8742 61.7664 27.1342Z" fill="#E0161C"/>
<path opacity="0.2" d="M63.0617 26.4853C62.8312 25.9156 62.2851 25.456 61.8427 25.4591L60.6309 25.4674L61.4659 27.5322L62.6778 27.524C63.1202 27.5197 63.2913 27.0547 63.0617 26.4853Z" fill="#E0161C"/>
</g>
<g opacity="0.7">
<path opacity="0.2" d="M15.6191 42.5843C15.7829 42.342 15.9531 42.1048 16.1263 41.8696C16.1827 41.7087 16.2307 41.5425 16.285 41.3931C16.3954 41.0905 16.549 40.8053 16.7411 40.5466C17.073 40.1058 17.5052 39.7557 17.8569 39.3386L11.0035 42.9219C9.92317 43.4873 7.9995 42.994 6.70834 41.8205L4.93393 40.207C3.64277 39.0335 3.47264 37.6239 4.55295 37.0596L27.4775 25.0799C27.4091 25.0586 27.3473 25.0205 27.298 24.9685C27.2488 24.9168 27.2136 24.8532 27.1959 24.784C27.1782 24.7145 27.1787 24.6419 27.197 24.5727C27.2154 24.5035 27.2512 24.4403 27.301 24.389C27.5547 24.133 27.8771 23.9637 28.1925 23.7954L28.4794 23.6418C28.3947 23.4216 28.3591 23.1855 28.375 22.9501C27.968 23.063 27.589 23.2072 27.4763 23.2323C27.3751 23.2552 27.2687 23.2393 27.1784 23.1877C27.0882 23.1364 27.0201 23.0531 26.9878 22.9543L2.88811 35.5474C1.0375 36.5142 1.32976 38.9269 3.53944 40.9355L5.31386 42.549C7.52353 44.5573 10.8156 45.4018 12.6652 44.4299L15.5815 42.9053C15.5624 42.8525 15.5559 42.796 15.5624 42.7405C15.5689 42.6847 15.5883 42.6314 15.6191 42.5843Z" fill="#E0161C"/>
<path opacity="0.2" d="M58.8 14.5881L57.0255 12.9747C54.8148 10.9662 51.5238 10.1218 49.6731 11.0937L45.8351 13.1001C45.8483 13.1518 45.8497 13.2058 45.8389 13.2581C45.8282 13.3104 45.806 13.3596 45.7735 13.4021C45.0879 14.4021 44.6255 15.6195 43.8218 16.5371L51.337 12.6079C52.4183 12.0425 54.3409 12.5358 55.6322 13.7083L57.4065 15.3228C58.6977 16.4963 58.8679 17.905 57.7875 18.4703L34.2409 30.774C34.2317 30.806 34.2187 30.8369 34.2024 30.8661C33.9837 31.2202 33.7396 31.558 33.4717 31.8765C33.2139 32.3079 32.9885 32.7616 32.7284 33.1995C32.6019 33.4118 32.4626 33.6163 32.3109 33.8119C32.2775 33.9425 32.2493 34.0751 32.2253 34.2088L59.4503 19.9761C61.3008 19.0084 61.0096 16.5966 58.8 14.5881Z" fill="#E0161C"/>
<path opacity="0.2" d="M59.7146 13.4637C59.27 13.0384 58.5841 12.844 58.1822 13.029L57.0811 13.5348L58.6885 15.073L59.7897 14.5672C60.1926 14.3833 60.1581 13.889 59.7146 13.4637Z" fill="#E0161C"/>
</g>
<path d="M29.8727 36.5955H32.4615V54.701C32.4615 55.0453 32.3248 55.3755 32.0815 55.6187C31.8385 55.8622 31.5088 55.9988 31.1649 55.9988C30.8211 55.9988 30.4914 55.8622 30.2483 55.6187C30.0053 55.3755 29.8687 55.0453 29.8687 54.701V36.5955H29.8727Z" fill="#E0161C"/>
<path d="M38.3307 24.4257H40.2096C40.3041 24.4257 40.3951 24.4633 40.4618 24.5303C40.5288 24.5972 40.5664 24.6882 40.5664 24.7829V54.7011C40.5664 55.0453 40.4298 55.3755 40.1868 55.6188C39.9437 55.8623 39.614 55.9989 39.2701 55.9989C38.9263 55.9989 38.5966 55.8623 38.3533 55.6188C38.1103 55.3755 37.9736 55.0453 37.9736 54.7011V24.7829C37.9736 24.6882 38.0113 24.5972 38.0782 24.5303C38.1452 24.4633 38.2359 24.4257 38.3307 24.4257Z" fill="#E0161C"/>
<path d="M33.7307 16.0845L42.1851 3.35021C42.8596 2.33343 44.7821 1.83707 46.4783 2.24148L48.811 2.7974C50.5071 3.20183 51.3359 4.35445 50.6606 5.37123L21.4506 49.383C20.7763 50.4 18.8547 50.8961 17.1585 50.4918L14.8215 49.935C13.1285 49.5324 12.3008 48.3831 12.9751 47.3621L28.7726 23.556C29.0117 23.1956 28.7131 22.7882 28.1087 22.6479H28.0859C27.4909 22.5111 26.8218 22.6847 26.586 23.0399L10.7894 46.8406C9.63395 48.5807 11.0514 50.5534 13.9552 51.2463L16.288 51.8022C19.1918 52.4951 22.4818 51.6454 23.6372 49.9045L52.8421 5.89268C53.9975 4.15173 52.5803 2.17982 49.6774 1.487L47.3436 0.931061C44.4397 0.238231 41.1498 1.08781 39.9953 2.82876L31.5408 15.563C31.2976 15.9288 31.6024 16.3436 32.2171 16.4836C32.8214 16.6153 33.4937 16.4418 33.7307 16.0845Z" fill="#E0161C"/>
<path d="M29.7277 18.3009L28.2717 20.4954C28.0367 20.8496 28.3165 21.2499 28.898 21.3972L28.9199 21.4025C29.5211 21.555 30.2131 21.3805 30.4541 21.0179L31.9103 18.8234C32.1482 18.465 31.8622 18.0585 31.2672 17.9111C30.6651 17.7648 29.9698 17.9352 29.7277 18.3009Z" fill="#E0161C"/>
<path d="M49.9362 0.0606469C49.3424 -0.0971467 48.6482 0.063782 48.3841 0.418033L47.6628 1.39301L49.813 1.96462L50.5343 0.989643C50.7984 0.635392 50.5303 0.218441 49.9362 0.0606469Z" fill="#E0161C"/>
</g>
<defs>
<clipPath id="clip0">
<rect width="63.168" height="56" fill="white"/>
</clipPath>
</defs>
</svg>
