<svg width="55" height="56" viewBox="0 0 55 56" fill="none" xmlns="http://www.w3.org/2000/svg">
<path d="M29.3104 30.0915L26.5048 30.9525C25.988 31.1248 25.4466 30.7312 25.422 30.1898C25.3973 29.7962 25.6435 29.4517 26.0127 29.3532L28.818 28.4921C29.335 28.3445 29.8518 28.689 29.9009 29.2302C29.9501 29.5993 29.7042 29.9685 29.3104 30.0915Z" fill="#E0161C"/>
<path d="M32.4115 28.0737C32.4605 28.6149 33.0019 28.9594 33.5189 28.8118C33.8141 28.7134 34.1094 28.6149 34.3555 28.5412C34.3555 28.5412 34.3802 28.1966 34.3555 28.5412C37.5303 27.5569 42.5013 26.0315 42.5013 26.0315C42.8705 25.9085 43.1413 25.5393 43.092 25.1458C43.0674 24.8505 42.8705 24.6044 42.5999 24.4567L34.7493 20.3478L42.4769 17.9611C42.846 17.8381 43.1166 17.4691 43.0674 17.0754C43.0427 16.7801 42.846 16.5341 42.5752 16.3865L34.7247 12.2775L42.4523 9.89085C42.8214 9.76783 43.092 9.39875 43.0427 9.00509C43.0183 8.70984 42.8214 8.4638 42.5506 8.31616L26.9479 0.0982312C26.7512 -0.000187075 26.5297 -0.0247917 26.3081 0.0490222L0.5908 7.99631C0.270872 8.09471 0.024774 8.38997 0.000164273 8.73443C-0.0244457 9.0789 0.147824 9.39875 0.443142 9.54639L5.8573 12.3759C6.71865 12.8188 7.58 13.2371 8.46596 13.5815L0.5908 16.0666C0.270872 16.165 0.024774 16.4603 0.000164273 16.8047C-0.0244457 17.1492 0.147824 17.4691 0.443142 17.6167L8.3183 21.7502L0.615411 24.1369C0.369313 24.2108 0.172433 24.3584 0.0739938 24.6044C-0.122885 25.0226 0.0739938 25.5147 0.443142 25.7116L8.73667 30.0666L0.615411 32.5763C0.369313 32.65 0.172433 32.7976 0.0739938 33.0438C-0.122885 33.462 0.0739938 33.9541 0.443142 34.151L16.1196 42.3196C16.2427 42.3935 16.3657 42.4182 16.5134 42.4182C16.5872 42.4182 16.6856 42.3935 16.7595 42.3689L24.4377 40.0315C24.8808 39.8839 25.1267 39.4164 25.0038 38.9735C24.8562 38.5307 24.3884 38.2845 23.9456 38.4075L16.6118 40.6219L3.05179 33.5113L10.7793 31.1246C10.8039 31.1246 10.8285 31.0999 10.8531 31.0999L16.1196 33.8558C16.2427 33.9295 16.3657 33.9541 16.5134 33.9541C16.5872 33.9541 16.6856 33.9541 16.7595 33.9048L22.3951 32.1581C22.7642 32.0349 23.0104 31.666 22.9858 31.2722V31.2475C22.9365 30.731 22.4197 30.3865 21.9029 30.5341L16.6118 32.1825L3.05179 25.0718L10.4594 22.7837L16.1196 25.8346C16.2427 25.9085 16.3657 25.9331 16.5134 25.9331C16.5872 25.9331 16.6856 25.9331 16.7595 25.8839L28.5723 22.2177L32.4359 21.0121L40.0158 24.9735L32.9773 27.1387C32.6083 27.2863 32.3622 27.6799 32.4115 28.0737ZM8.36752 11.7116C7.77687 11.4656 7.21085 11.1703 6.62023 10.875L3.02718 8.98047L26.4557 1.72213L40.0404 8.85745L32.3129 11.2441L27.317 12.7942C26.7019 12.991 26.0866 13.1632 25.4715 13.2863L23.6994 12.7696C21.5338 12.1299 19.7373 10.7028 18.6544 8.70984C18.5068 8.4638 18.2607 8.29156 17.99 8.26694C17.7193 8.24235 17.4239 8.36537 17.2517 8.58682C15.7013 10.5798 13.3633 11.7116 10.8531 11.7116H8.36752ZM21.8783 13.8768C18.8267 14.1721 15.7505 13.9506 12.7727 13.2125C14.6922 12.8434 16.4149 11.9084 17.8177 10.506C18.8513 11.9822 20.2295 13.1387 21.8783 13.8768ZM3.02718 17.0754L9.25348 15.1316L5.80809 18.5271L3.02718 17.0754ZM7.38313 19.339L11.9852 14.7379C13.4618 15.1316 14.9876 15.4023 16.538 15.5499L10.9023 21.1844L7.38313 19.339ZM18.6298 21.7749L16.3411 24.0632L12.4528 22.0209L18.7775 15.6975C18.9498 15.6975 19.122 15.6975 19.2943 15.6975C21.3123 15.6975 23.3056 15.4761 25.2746 15.0578L18.7775 21.5534C18.7283 21.6026 18.679 21.7011 18.6298 21.7749ZM27.8831 20.6922L19.4912 23.2758L28.6214 14.1474L32.4359 12.9664L34.5032 14.049L27.8831 20.6922ZM32.2883 19.3144L31.3286 19.6097L36.0783 14.861L40.0158 16.9277L32.2883 19.3144Z" fill="#E0161C"/>
<path d="M52.9359 39.1704L51.6315 38.9491C51.5083 38.6292 51.3854 38.3094 51.2377 37.9895L52.0007 36.9069C52.6651 35.9719 52.5667 34.6924 51.7545 33.8804L50.1796 32.3057C49.7365 31.8629 49.1458 31.6169 48.5307 31.6169C48.0384 31.6169 47.5709 31.7645 47.1771 32.0598L46.0943 32.8225C45.7497 32.6749 45.4299 32.5272 45.0851 32.4043L44.8638 31.1248C44.6669 29.9929 43.7071 29.1565 42.5503 29.1565H40.3354C39.1789 29.1565 38.2191 29.9683 38.0222 31.1248L37.8006 32.4533C37.4808 32.5765 37.1609 32.6995 36.841 32.8471L35.7826 32.0844C35.3888 31.7892 34.9213 31.6416 34.4046 31.6416C33.7646 31.6416 33.1741 31.8875 32.7557 32.3304L31.1805 33.9051C30.3685 34.7171 30.27 35.9966 30.9346 36.9315L31.7222 38.0388C31.5743 38.3584 31.4514 38.6783 31.3284 38.9982L30.0487 39.2197C28.9166 39.4166 28.0797 40.376 28.0797 41.5325V43.747C28.0797 44.9032 28.8919 45.8629 30.0487 46.0598L31.3774 46.2813C31.5006 46.6009 31.6236 46.9208 31.7712 47.2407L31.0083 48.2989C30.3439 49.2338 30.4425 50.5131 31.2545 51.3251L32.8294 52.8998C33.2725 53.3427 33.8632 53.5888 34.4783 53.5888C34.9706 53.5888 35.4381 53.441 35.8319 53.1458L36.9394 52.3584C37.2346 52.4816 37.5301 52.6046 37.8253 52.7276L38.0468 54.0317C38.2437 55.1633 39.2036 56 40.3601 56H42.575C43.7317 56 44.6916 55.188 44.8885 54.0317L45.1098 52.7276C45.4299 52.6046 45.7497 52.4816 46.0696 52.334L47.1524 53.0967C47.5462 53.3919 48.0137 53.5396 48.5307 53.5396C49.1458 53.5396 49.7365 53.2934 50.1796 52.8505L51.7545 51.2758C52.5667 50.464 52.6651 49.1846 52.0007 48.2496L51.2377 47.167C51.3854 46.8471 51.5083 46.5272 51.6315 46.2074L52.9359 45.9858C54.0678 45.7892 54.9046 44.8295 54.9046 43.673V41.4588C54.9046 40.3269 54.0678 39.3673 52.9359 39.1704ZM53.305 43.6977C53.305 44.0668 53.0342 44.4113 52.6651 44.4604L50.9423 44.7556C50.6224 44.8049 50.3765 45.0264 50.2779 45.3463C50.1303 45.8382 49.9088 46.355 49.6382 46.8718C49.4903 47.167 49.515 47.4869 49.7119 47.7575L50.721 49.1846C50.9423 49.5044 50.9179 49.9226 50.6471 50.1932L49.0721 51.7679C48.9243 51.9156 48.7276 51.9895 48.5307 51.9895C48.3584 51.9895 48.2106 51.9402 48.0876 51.8419L46.6603 50.833C46.3895 50.6363 46.045 50.6117 45.7744 50.7593C45.282 51.0052 44.7899 51.2268 44.2485 51.399C43.9533 51.4974 43.7071 51.7433 43.6578 52.0632L43.3626 53.7855C43.2886 54.1547 42.9688 54.4253 42.5996 54.4253H40.3847C40.0156 54.4253 39.671 54.1547 39.6218 53.7855L39.3265 52.0632C39.2773 51.7433 39.0557 51.4974 38.7358 51.399C38.2191 51.2268 37.727 51.0299 37.2592 50.7839C37.1363 50.71 36.9886 50.6854 36.8654 50.6854C36.6932 50.6854 36.5209 50.7346 36.3733 50.833L34.9213 51.8665C34.7984 51.9648 34.6508 52.0141 34.4783 52.0141C34.2816 52.0141 34.0847 51.9402 33.9369 51.7926L32.3619 50.2179C32.0913 49.9473 32.0667 49.5291 32.288 49.2338L33.2971 47.8314C33.494 47.5606 33.5187 47.216 33.3464 46.9455C33.1002 46.4533 32.8787 45.9614 32.7064 45.4447C32.6081 45.1494 32.3619 44.9279 32.042 44.8542L30.27 44.5343C29.9008 44.4604 29.6302 44.1405 29.6302 43.7716V41.5571C29.6302 41.188 29.9008 40.8435 30.27 40.7944L31.9928 40.4992C32.3126 40.4499 32.5588 40.2284 32.6572 39.9085C32.8294 39.3919 33.0263 38.8752 33.2725 38.3831C33.4201 38.0878 33.3955 37.768 33.1986 37.4974L32.165 36.0456C31.9435 35.7257 31.9681 35.3075 32.2389 35.0369L33.8139 33.4622C33.9615 33.3146 34.1584 33.2407 34.3553 33.2407C34.5276 33.2407 34.6752 33.29 34.7984 33.3883L36.2257 34.3972C36.4963 34.5941 36.841 34.6185 37.1116 34.4465C37.6038 34.2003 38.0961 33.979 38.6129 33.8067C38.9081 33.7082 39.1296 33.4622 39.2036 33.1424L39.4988 31.3954C39.5727 31.0264 39.8926 30.7556 40.2617 30.7556H42.4767C42.8458 30.7556 43.1903 31.0264 43.2396 31.3954L43.5348 33.1177C43.5841 33.4376 43.8054 33.6835 44.1255 33.7821C44.6669 33.9544 45.1837 34.151 45.7005 34.4218C45.9959 34.5695 46.3158 34.5448 46.5864 34.3726L48.0137 33.3392C48.1369 33.2407 48.2845 33.1916 48.4568 33.1916C48.6537 33.1916 48.8506 33.2653 48.9982 33.4129L50.5731 34.9877C50.844 35.2583 50.8686 35.6767 50.6471 35.9719L49.6135 37.399C49.4166 37.6696 49.392 38.0141 49.5642 38.2847C49.8104 38.7522 50.0317 39.269 50.2042 39.8102C50.3025 40.1054 50.5487 40.3516 50.8686 40.4006L52.5912 40.6959C52.9603 40.7698 53.2311 41.065 53.2311 41.4588V43.6977H53.305Z" fill="#E0161C"/>
<path d="M44.2485 45.5676C44.7899 45.8138 44.8639 46.5765 44.3715 46.9208C43.5349 47.4868 42.5504 47.8067 41.4676 47.8067C38.4899 47.8067 36.1028 45.3217 36.2504 42.3198C36.398 39.6872 38.539 37.5466 41.1723 37.399C44.1746 37.2514 46.6603 39.6379 46.6603 42.6151C46.6603 42.6397 46.6603 42.6644 46.6603 42.689C46.6603 43.2548 46.045 43.624 45.5529 43.3778L45.479 43.3532C45.233 43.2302 45.0852 43.0089 45.0852 42.738C45.0852 40.819 43.6332 39.1458 41.7138 38.9981C39.4496 38.8259 37.5792 40.7451 37.8253 43.0333C37.9976 44.7312 39.3759 46.0844 41.0738 46.2566C41.9599 46.355 42.7966 46.109 43.461 45.6662C43.7071 45.4939 44.0024 45.4446 44.2485 45.5676Z" fill="#E0161C"/>
</svg>
