<svg width="56" height="56" viewBox="0 0 56 56" fill="none" xmlns="http://www.w3.org/2000/svg">
<path d="M1.93761 20.4685H1.95299C2.35283 20.5454 2.74496 20.3147 2.86798 19.9303C3.28321 18.6462 3.79069 17.3928 4.39813 16.1857C4.59805 15.7935 4.42888 15.3091 4.03675 15.1169L4.02136 15.1092C3.62923 14.917 3.15249 15.0861 2.95257 15.4783C2.68345 16.0088 2.43741 16.547 2.20673 17.1007C1.88378 17.8696 1.59159 18.6539 1.33785 19.4382C1.18407 19.8918 1.46857 20.3762 1.93761 20.4685Z" fill="#E0161C"/>
<path d="M53.801 17.1007C52.3938 13.7636 50.3716 10.7725 47.8034 8.20431C45.2352 5.63613 42.2365 3.6139 38.907 2.20678C35.4469 0.738159 31.7791 0 27.9962 0C24.2131 0 20.5531 0.738158 17.1007 2.19909C13.7636 3.6062 10.7725 5.62845 8.20431 8.19663C7.32005 9.08087 6.505 10.0113 5.75917 10.9955C5.51311 11.3107 5.55155 11.7567 5.82837 12.0412C5.83605 12.0489 5.83605 12.0489 5.84376 12.0566C6.18206 12.4026 6.75107 12.3641 7.04325 11.9797C9.03475 9.38076 11.5491 7.09708 14.5479 5.27475C16.993 3.79075 19.6842 2.74503 22.4831 2.17603C31.5177 0.346011 40.3834 3.07565 46.6576 9.3423C52.5399 15.2245 55.3002 23.3903 54.1162 31.8407C53.5241 36.0544 51.8941 40.068 49.3721 43.4898C43.3975 51.6018 33.8014 55.5771 23.8441 54.0624C19.6381 53.4242 15.6551 51.7402 12.2565 49.1796C5.43621 44.0433 1.61472 36.3158 1.61472 27.9962C1.61472 26.9042 1.68392 25.82 1.81464 24.7589C1.86077 24.3515 1.59934 23.9593 1.19951 23.8748C0.722779 23.7749 0.26143 24.0977 0.199918 24.5746C0.0615131 25.7125 0 26.8043 0 28.0038C0 31.7869 0.738158 35.4469 2.19909 38.8994C3.6062 42.2365 5.62845 45.2276 8.19663 47.7958C10.7648 50.3639 13.7636 52.3862 17.0929 53.7932C20.5454 55.2541 24.2131 55.9924 27.9886 55.9924C31.7639 55.9924 35.4317 55.2541 38.8839 53.7932C42.2211 52.3862 45.2122 50.3639 47.7803 47.7958C50.3485 45.2276 52.3708 42.2287 53.7779 38.8994C55.2388 35.4469 55.9769 31.7793 55.9769 28.0038C55.9769 24.2285 55.2619 20.5531 53.801 17.1007Z" fill="#E0161C"/>
<path d="M50.4792 34.5011C50.1331 34.4319 49.7949 34.6317 49.6871 34.9623C49.3335 36.0695 48.8953 37.1539 48.3723 38.1919C48.2032 38.5302 48.3416 38.9455 48.6877 39.1146L48.7029 39.1222C49.0414 39.2837 49.4564 39.1453 49.6258 38.807C49.8563 38.3456 50.0718 37.8844 50.2716 37.4075C50.556 36.7462 50.8022 36.0695 51.0175 35.3852C51.1405 34.9932 50.9021 34.5779 50.4947 34.5011H50.4792Z" fill="#E0161C"/>
<path d="M14.3711 47.9571C15.6936 48.8645 17.1008 49.6333 18.5924 50.2639C21.5681 51.525 24.736 52.1632 27.9963 52.1632C31.2564 52.1632 34.4244 51.525 37.4 50.2639C40.2758 49.0491 42.8594 47.3037 45.0814 45.0892C45.8428 44.3279 46.5424 43.5206 47.196 42.6747C47.4037 42.3979 47.3806 42.0135 47.1346 41.7673L47.1268 41.7597C46.8347 41.4676 46.3426 41.4983 46.0888 41.8289C44.3664 44.0741 42.1981 46.0426 39.6145 47.6189C37.5078 48.9028 35.1856 49.8026 32.7635 50.2948C27.0044 51.4558 21.3298 50.4791 16.5779 47.7112L22.6293 39.9065C23.5443 40.3218 24.4976 40.6218 25.4974 40.8216C25.705 40.8601 25.851 41.0368 25.851 41.2445V42.1365C24.9206 42.3748 24.2362 43.2206 24.2362 44.2203C24.2362 45.4044 25.205 46.3732 26.3893 46.3732H29.6187C30.8028 46.3732 31.7716 45.4044 31.7716 44.2203C31.7716 43.2206 31.0873 42.3748 30.157 42.1365V41.2445C30.157 41.0368 30.303 40.8601 30.5107 40.8216C32.233 40.491 33.84 39.8221 35.2933 38.8378C35.4701 38.7225 35.7008 38.7379 35.8468 38.884L36.485 39.5222C36.039 40.2988 36.093 41.2906 36.685 41.9904C37.077 42.4516 37.6384 42.7363 38.2459 42.7594C38.8457 42.7825 39.4378 42.5594 39.8607 42.1288L42.1444 39.8452C42.5518 39.4377 42.7747 38.8994 42.7747 38.3226C42.7747 37.7461 42.5518 37.2078 42.1444 36.8003C41.7367 36.3927 41.1984 36.1698 40.6218 36.1698C40.2296 36.1698 39.8528 36.2697 39.5301 36.4695L38.8995 35.8392C38.7535 35.6929 38.738 35.4624 38.8534 35.2854C39.8376 33.8321 40.4989 32.2175 40.8371 30.5028C40.8756 30.2952 41.0524 30.1491 41.26 30.1491H42.1596C42.3903 31.0104 43.1362 31.6792 44.0434 31.7561C44.6433 31.8101 45.243 31.61 45.6889 31.2026C46.1349 30.7949 46.3887 30.2183 46.3887 29.6108V26.3814C46.3887 25.7818 46.1349 25.1974 45.6889 24.7897C45.243 24.3822 44.6433 24.1824 44.0434 24.2362C43.1362 24.313 42.3903 24.9821 42.1596 25.8432H41.26C41.0524 25.8432 40.8756 25.6971 40.8371 25.4895C40.5065 23.7671 39.8376 22.1601 38.8534 20.7069C38.738 20.53 38.7535 20.2993 38.8995 20.1532L39.5301 19.5227C39.8607 19.715 40.2296 19.8226 40.6218 19.8226C41.1984 19.8226 41.7367 19.5996 42.1444 19.1921C42.9823 18.354 42.9823 16.9853 42.1444 16.1472L41.5369 15.5398L44.2511 12.0412C48.4571 16.324 50.7791 21.9833 50.7791 27.9962C50.7791 28.942 50.7254 29.8722 50.61 30.7951C50.5638 31.1488 50.7946 31.4871 51.1407 31.5639C51.5481 31.6562 51.9479 31.3717 52.0017 30.9564C52.1247 29.98 52.1787 29.0343 52.1787 27.9962C52.1787 24.7359 51.5405 21.568 50.2794 18.5923C49.0646 15.7166 47.319 13.1331 45.1045 10.9109C44.7508 10.5572 44.3819 10.2112 44.0051 9.88055L14.3711 47.9571ZM39.4147 25.7663C39.5838 26.6428 40.3528 27.281 41.2446 27.281H42.6441C43.1208 27.281 43.5052 26.8966 43.5052 26.42C43.5052 26.0353 43.7899 25.7047 44.1588 25.674C44.3664 25.6586 44.5586 25.7202 44.7125 25.8586C44.8662 25.997 44.943 26.1816 44.943 26.389V29.6187C44.943 29.8261 44.8586 30.0107 44.7125 30.1491C44.5586 30.2875 44.3664 30.3491 44.1588 30.3337C43.7975 30.303 43.5052 29.9724 43.5052 29.5878C43.5052 29.1111 43.1208 28.7267 42.6441 28.7267H41.2446C40.3528 28.7267 39.5838 29.3649 39.4147 30.2414C39.1148 31.7715 38.5227 33.2018 37.6538 34.5012C37.1541 35.2471 37.2464 36.239 37.8767 36.8693L38.861 37.8536C39.1994 38.192 39.7453 38.192 40.0836 37.8536L40.1066 37.8305C40.3835 37.5539 40.8447 37.5539 41.1216 37.8305C41.26 37.9689 41.3292 38.1459 41.3292 38.3381C41.3292 38.5303 41.2524 38.707 41.1216 38.8455L38.8379 41.1291C38.6918 41.2754 38.4997 41.3444 38.2996 41.3368C38.0998 41.3292 37.9076 41.2369 37.7768 41.0754C37.5385 40.7909 37.5692 40.3604 37.846 40.0835C38.1843 39.7453 38.1843 39.1991 37.846 38.8609L36.8618 37.8767C36.2314 37.2461 35.2393 37.154 34.4936 37.6538C33.2018 38.5303 31.764 39.1223 30.2338 39.4146C29.3573 39.5838 28.7191 40.3525 28.7191 41.2445V42.6055C28.7191 43.0976 29.119 43.5051 29.6187 43.5051C30.0107 43.5051 30.3337 43.8281 30.3337 44.2203C30.3337 44.6123 30.0107 44.9353 29.6187 44.9353H26.3893C25.9971 44.9353 25.6741 44.6123 25.6741 44.2203C25.6741 43.8281 25.9971 43.5051 26.3893 43.5051C26.8814 43.5051 27.2889 43.1053 27.2889 42.6055V41.2445C27.2889 40.3525 26.6507 39.5838 25.774 39.4146C25.0052 39.2684 24.2593 39.0379 23.5443 38.7455L37.3924 20.8991C37.4462 21.1144 37.5309 21.322 37.6614 21.5142C38.5227 22.8059 39.1148 24.2362 39.4147 25.7663ZM41.1216 17.1622C41.3984 17.439 41.3984 17.9003 41.1216 18.1771C40.8447 18.4539 40.3835 18.4539 40.1066 18.1771C39.9837 18.0541 39.8298 17.9772 39.6761 17.9388L40.6449 16.6854L41.1216 17.1622Z" fill="#E0161C"/>
<path d="M41.5598 7.99669C40.2601 7.11243 38.8684 6.35889 37.4075 5.73608C34.4319 4.47505 31.2639 3.83685 28.0038 3.83685C24.7437 3.83685 21.5756 4.47505 18.5999 5.73608C15.7242 6.95095 13.1406 8.6964 10.9185 10.9109C8.69632 13.133 6.95858 15.7166 5.74369 18.5923C4.48268 21.568 3.84448 24.7359 3.84448 27.9962C3.84448 31.2563 4.48268 34.4243 5.74369 37.3999C6.95858 40.2756 8.70401 42.8592 10.9185 45.0813C11.3183 45.4812 11.7259 45.8658 12.1487 46.2347L41.5598 7.99669ZM14.8784 38.8378C14.74 38.6993 14.6708 38.5226 14.6708 38.3304C14.6708 38.1382 14.7477 37.9613 14.8784 37.8228C15.0168 37.6844 15.1936 37.6152 15.3859 37.6152C15.5781 37.6152 15.755 37.6922 15.8934 37.8228L15.9164 37.8459C16.0625 37.9919 16.2394 38.069 16.4239 38.0921L15.4243 39.3837L14.8784 38.8378ZM18.3462 34.4857C17.4696 33.1941 16.8776 31.756 16.5854 30.2261C16.4162 29.3494 15.6473 28.7112 14.7554 28.7112H13.3944C12.9023 28.7112 12.4948 29.111 12.4948 29.6108C12.4948 29.8108 12.4179 29.9875 12.2718 30.126C12.1334 30.2644 11.9411 30.3336 11.7489 30.326C11.3645 30.3105 11.0569 29.9723 11.0569 29.5725V26.3737C11.0569 26.1737 11.1338 25.997 11.2722 25.8585C11.4106 25.7201 11.6028 25.6509 11.795 25.6587C12.1795 25.674 12.4871 26.0124 12.4871 26.4123C12.4871 26.8889 12.8715 27.2733 13.3483 27.2733H14.7477C15.6396 27.2733 16.4085 26.6351 16.5777 25.7586C16.8776 24.2285 17.4696 22.7983 18.3385 21.4988C18.8383 20.753 18.746 19.7611 18.1155 19.1305L17.1544 18.1694C16.8007 17.8234 16.2317 17.8234 15.8857 18.1694C15.7473 18.3078 15.5704 18.377 15.3782 18.377C15.186 18.377 15.0091 18.3001 14.8707 18.1694C14.5939 17.8926 14.5939 17.4313 14.8707 17.1544L17.1544 14.8708C17.4312 14.594 17.8925 14.594 18.1693 14.8708C18.4461 15.1476 18.4461 15.6089 18.1693 15.8857C18.0002 16.0549 17.9079 16.2779 17.9079 16.5239C17.9079 16.7623 18.0002 16.9853 18.1693 17.1621L19.1305 18.1233C19.761 18.7538 20.7529 18.8461 21.4988 18.3463C22.7906 17.4697 24.2285 16.8776 25.7586 16.5855C26.6351 16.4163 27.2733 15.6474 27.2733 14.7554V13.3945C27.2733 12.9024 26.8735 12.4948 26.3737 12.4948C25.9815 12.4948 25.6585 12.1719 25.6585 11.7797C25.6585 11.3876 25.9815 11.0646 26.3737 11.0646H29.6031C29.9953 11.0646 30.3181 11.3876 30.3181 11.7797C30.3181 12.1719 29.9953 12.4948 29.6031 12.4948C29.111 12.4948 28.7035 12.8947 28.7035 13.3945V14.7554C28.7035 15.6474 29.3417 16.4163 30.2182 16.5855C31.0255 16.7392 31.8021 16.9776 32.5404 17.3005L18.6461 35.2316C18.5999 34.9702 18.5077 34.7164 18.3462 34.4857ZM33.4631 16.1318C32.525 15.7012 31.5331 15.3783 30.5027 15.1783C30.2951 15.1399 30.149 14.963 30.149 14.7554V13.8635C31.0795 13.6251 31.7638 12.7793 31.7638 11.7797C31.7638 10.5956 30.795 9.62678 29.6107 9.62678H26.3813C25.1973 9.62678 24.2285 10.5956 24.2285 11.7797C24.2285 12.7793 24.9128 13.6251 25.8431 13.8635V14.7554C25.8431 14.963 25.697 15.1399 25.4894 15.1783C23.767 15.509 22.16 16.1779 20.7068 17.1621C20.5299 17.2775 20.2992 17.2621 20.1531 17.116L19.5226 16.4855C19.7149 16.1549 19.8225 15.7858 19.8225 15.3936C19.8225 14.817 19.5995 14.2787 19.192 13.8712C18.3539 13.0331 16.9852 13.0331 16.1471 13.8712L13.8634 16.1472C13.0253 16.9853 13.0253 18.354 13.8634 19.1921C14.2709 19.5996 14.8092 19.8226 15.3859 19.8226C15.778 19.8226 16.1548 19.7226 16.4777 19.5227L17.1082 20.1532C17.2543 20.2993 17.2697 20.53 17.1544 20.7068C16.1702 22.1601 15.5089 23.7749 15.1706 25.4894C15.1321 25.697 14.9553 25.8431 14.7477 25.8431H13.8481C13.602 24.9435 12.7946 24.2592 11.8489 24.2285C11.2645 24.2054 10.7032 24.4207 10.2803 24.836C9.85738 25.2434 9.62671 25.7969 9.62671 26.3814V29.5801C9.62671 30.7641 10.5417 31.7253 11.7028 31.7638C12.2948 31.7869 12.8485 31.5717 13.279 31.164C13.5712 30.8795 13.7712 30.5336 13.8711 30.149H14.763C14.9707 30.149 15.1475 30.2951 15.186 30.5027C15.5166 32.2251 16.1855 33.8323 17.1697 35.2854C17.2851 35.4623 17.2697 35.693 17.1236 35.8391L16.4931 36.4696C16.1625 36.2772 15.7934 36.1697 15.4012 36.1697C14.8246 36.1697 14.2863 36.3926 13.8788 36.8003C13.4713 37.2077 13.2483 37.746 13.2483 38.3226C13.2483 38.8994 13.4713 39.4376 13.8788 39.8451L14.5554 40.5218L11.8412 44.0202C6.79712 38.9531 4.44424 31.9406 5.45921 24.6821C5.96668 21.0452 7.3738 17.585 9.54983 14.6247C14.7015 7.62761 22.9904 4.19055 31.5792 5.4977C34.3857 5.92061 37.0769 6.88943 39.5066 8.32731L33.4631 16.1318Z" fill="#E0161C"/>
</svg>
