<svg width="100" height="56" viewBox="0 0 100 56" fill="none" xmlns="http://www.w3.org/2000/svg">
<path d="M48.8571 5.45357C51.6422 6.12658 54.3248 7.06133 56.877 8.23908C57.2308 8.40735 57.6873 8.2204 57.8737 7.8465C57.8737 7.8465 57.8737 7.83716 57.8828 7.83716C58.0504 7.4913 57.9295 7.1174 57.6033 6.96786C54.9768 5.7527 52.2196 4.78993 49.3507 4.09821C48.9502 4.00474 48.5125 4.2758 48.4192 4.67775V4.68709C48.3261 5.04228 48.5216 5.36946 48.8571 5.45357Z" fill="#E0161C"/>
<path d="M74.0623 20.4187C70.6905 15.7731 66.4429 11.922 61.4224 8.9682C61.2454 8.86538 61.059 8.7532 60.8728 8.65039C60.5282 8.4541 60.0438 8.613 59.8483 8.9869C59.8483 8.9869 59.8483 8.99624 59.8389 8.99624C59.6619 9.3234 59.755 9.6973 60.0623 9.86554C60.2393 9.96836 60.4163 10.0618 60.5934 10.1646C65.4648 13.0343 69.5913 16.7732 72.8605 21.2787L96.9016 54.4244L90.1018 54.0879C89.2728 54.0505 88.5183 53.6767 88.034 53.069L75.7016 37.6833C73.4474 34.8696 70.411 32.7105 66.9179 31.4393C63.425 30.1681 59.5315 29.8128 55.6659 30.4017L55.5728 30.4111L47.6181 33.589L24.7322 2.03246C24.667 1.93899 24.7603 1.80812 24.8813 1.81747L44.5163 4.62168C44.7773 4.65907 45.038 4.69645 45.2989 4.7432C45.6994 4.80863 46.0998 4.5282 46.1838 4.12626V4.11692C46.2583 3.75238 46.0346 3.42521 45.6715 3.36914C45.4014 3.32239 45.1311 3.285 44.861 3.24762L22.2173 0.00408488C21.9006 -0.0426519 21.6491 0.321895 21.8261 0.574273L47.0034 35.2997L55.8244 31.7663C59.4197 31.2337 63.0337 31.5701 66.2846 32.7479C69.5632 33.9349 72.4134 35.9634 74.5186 38.5992L86.8324 54.0037C87.5405 54.8916 88.6396 55.434 89.8505 55.4994L99.8449 55.9949L74.0623 20.4187Z" fill="#E0161C"/>
<path d="M53.8777 28.5882C53.5425 28.8313 53.4494 29.2705 53.6728 29.5698L54.9023 31.2617C55.1724 31.14 55.4518 31.0372 55.7407 30.9438C55.9641 30.869 56.1971 30.8224 56.4112 30.7942L54.8744 28.6819C54.6601 28.3826 54.213 28.3452 53.8777 28.5882Z" fill="#E0161C"/>
<path d="M93.6603 48.6757C93.623 48.6197 93.5857 48.5728 93.5576 48.5168L90.1766 47.4139C88.6304 46.9092 87.3263 45.9744 86.404 44.703L72.2366 25.3447C69.0045 20.8954 64.2167 15.9694 57.7618 12.5202C51.7167 9.27666 44.7587 7.78108 38.76 6.92112L38.3129 6.85569C37.8379 6.79026 37.4654 7.33241 37.7355 7.70631L51.1205 26.0832C51.3348 26.3823 51.7819 26.4291 52.1172 26.1861C52.4525 25.943 52.5458 25.5038 52.3221 25.2045L40.2317 8.60365C45.5877 9.60381 51.698 11.0526 57.0074 13.8942C63.2016 17.2032 67.952 21.9797 71.035 26.2235L85.2025 45.5818C86.283 47.0586 87.8013 48.1524 89.5991 48.7319L95.1877 50.5732C94.6569 49.9657 94.1353 49.33 93.6603 48.6757Z" fill="#E0161C"/>
<path d="M46.407 33.1966L44.3207 34.066L22.3383 3.75236C22.2731 3.66825 22.3662 3.53737 22.478 3.55607L25.1979 3.94866L24.0427 2.35026L19.7674 1.74269C19.4787 1.7053 19.2458 2.03246 19.4135 2.26615L43.8269 35.9352L47.32 34.4584L46.407 33.1966Z" fill="#E0161C"/>
<path d="M48.3726 4.63102C48.8755 4.73383 49.3786 4.83667 49.8721 4.95819C49.8069 4.55625 49.9654 4.13562 50.3192 3.8739C50.813 3.50934 51.5116 3.62152 51.8748 4.11691C52.173 4.5282 52.1449 5.07969 51.8469 5.46293C52.3313 5.60315 52.8156 5.7714 53.3 5.94901C53.7192 5.10773 53.6726 4.05148 53.0764 3.23827C52.2288 2.06985 50.5987 1.81747 49.4438 2.65874C48.7824 3.1448 48.4192 3.8739 48.3726 4.63102Z" fill="#E0161C"/>
<path d="M15.604 35.8978C15.427 35.8418 15.25 35.7858 15.0824 35.711C12.9586 38.5153 9.08377 39.5434 5.78641 37.9638C2.02333 36.1503 0.421225 31.6075 2.22825 27.8311C2.72192 26.7842 3.42982 25.9056 4.27745 25.2233C3.9142 24.8775 3.60681 24.4848 3.35531 24.0455C2.34002 24.8681 1.4924 25.9242 0.886955 27.1768C-0.798983 30.7102 0.0020702 34.8043 2.58221 37.4589C3.30875 38.2068 4.16569 38.8329 5.15304 39.3098C7.33263 40.3565 9.79167 40.4874 12.0831 39.6836C13.5734 39.1602 14.8681 38.2722 15.8741 37.113C15.6971 36.7298 15.6133 36.3091 15.604 35.8978Z" fill="#E0161C"/>
<path d="M16.9733 17.6893C16.256 15.6422 14.775 13.9877 12.8189 13.053C10.7604 12.0621 8.49698 12.0248 6.50368 12.7632C6.04727 12.9315 5.87028 13.4829 6.1404 13.8849L6.14973 13.8942C6.34533 14.1747 6.69928 14.2868 7.01598 14.1653C8.63671 13.5671 10.4903 13.5951 12.1669 14.399C12.8841 14.7448 13.5175 15.2029 14.0578 15.7544C14.7191 16.4367 15.2314 17.2593 15.5574 18.1847C16.0045 19.4559 16.0511 20.8019 15.7158 22.0732C15.6133 22.447 15.8183 22.8303 16.1815 22.9705L16.2002 22.9799C16.6007 23.1293 17.0478 22.8957 17.1595 22.4844C17.588 20.9141 17.5228 19.2596 16.9733 17.6893Z" fill="#E0161C"/>
<path d="M8.64587 27.5975C8.61793 27.2704 8.38505 26.99 8.05904 26.9246C7.5188 26.8218 6.97855 26.6441 6.45694 26.3917C4.86415 25.6252 3.65326 24.2791 3.06643 22.6061C2.47962 20.9329 2.57277 19.1288 3.33656 17.5211C3.44833 17.2874 3.56942 17.0631 3.70915 16.8481C3.92337 16.5116 3.83023 16.0629 3.49491 15.8386L3.4856 15.8292C3.14096 15.5956 2.67523 15.6984 2.45168 16.0442C2.28402 16.306 2.13498 16.5864 1.99526 16.8761C1.06381 18.8391 0.942717 21.0451 1.65994 23.1016C2.06046 24.2326 2.68453 25.2421 3.49491 26.0738C4.15625 26.747 4.92935 27.317 5.80491 27.7377C6.4383 28.0462 7.09964 28.2612 7.76098 28.3828C8.23603 28.4762 8.67382 28.0836 8.63654 27.5975H8.64587Z" fill="#E0161C"/>
<path d="M27.9551 39.2161C28.7654 37.5151 28.8678 35.5987 28.2437 33.8227C28.0109 33.1498 27.6756 32.5329 27.2658 31.972C26.8839 31.4579 26.0734 31.6449 25.9524 32.271C25.9524 32.2804 25.9524 32.2804 25.9524 32.2898C25.9151 32.4955 25.9618 32.7105 26.0828 32.8787C26.3995 33.318 26.6602 33.7947 26.8372 34.3181C27.331 35.7204 27.2471 37.2346 26.6138 38.5712C25.291 41.3381 21.9751 42.5159 19.218 41.1884C16.9639 40.1043 15.7716 37.6833 16.1349 35.3183C16.1907 34.9819 15.9951 34.664 15.6878 34.5332C15.6784 34.5332 15.6784 34.5332 15.6691 34.5238C15.2034 34.3181 14.7377 34.58 14.6538 35.0847C14.3185 37.2812 15.0357 39.5246 16.5726 41.1044C17.1315 41.6839 17.8022 42.17 18.566 42.5345C22.0682 44.2169 26.2785 42.7307 27.9551 39.2161Z" fill="#E0161C"/>
<path d="M22.6273 16.6331C22.0218 16.6985 21.1928 16.6611 20.1402 16.3152C19.7676 16.1937 19.3671 16.3713 19.2181 16.7359C19.0504 17.1378 19.2553 17.5958 19.6652 17.736C20.932 18.1567 21.9752 18.2034 22.7855 18.1099C23.3538 18.0445 23.6331 17.3902 23.2978 16.9322C23.1489 16.7172 22.888 16.605 22.6273 16.6331Z" fill="#E0161C"/>
<path d="M28.9425 24.7186C28.7003 24.3821 28.2253 24.3073 27.8898 24.5595C26.4088 25.6813 23.7356 28.0181 23.1487 30.5979C23.0463 31.056 23.3909 31.4953 23.8568 31.5047C24.2106 31.5141 24.5273 31.271 24.6019 30.9158C25.049 28.9529 27.2751 26.8965 28.784 25.7467C29.1195 25.5037 29.1847 25.0456 28.9425 24.7186Z" fill="#E0161C"/>
<path d="M24.2756 19.3063L19.637 21.4656C19.2644 21.6432 19.1061 22.0825 19.2737 22.4565C19.4507 22.8303 19.8885 22.9891 20.2611 22.8209L24.8997 20.6617C25.3283 20.4654 25.468 19.9233 25.1885 19.54C24.9836 19.2503 24.6017 19.1568 24.2756 19.3063Z" fill="#E0161C"/>
<path d="M27.1261 22.2134C26.9024 21.9143 26.4926 21.8115 26.1667 21.9984C25.3377 22.447 24.1734 23.1294 22.9345 24.0175C20.0655 26.0644 18.1188 28.2144 17.1221 30.4297C16.9452 30.8224 17.1408 31.2803 17.5413 31.4299L17.5692 31.4393C17.9325 31.5701 18.3237 31.3925 18.4821 31.0372C20.1494 27.3358 24.7136 24.4942 26.8745 23.3164C27.2843 23.0919 27.3961 22.5779 27.1261 22.2134Z" fill="#E0161C"/>
</svg>
